{"title":"The Blacklist S01E20 HDTV x264 AAC E-Subs [GWC].mp4","uid":10062973,"size":123868379,"categoryP":"video","categoryS":"tv_shows","magnet":"?xt=urn:btih:a321115fd1d765be00ecf415544ea8f427e54ef5&amp;dn=The+Blacklist+S01E20+HDTV+x264+AAC+E-Subs+%5BGWC%5D.mp4&amp;tr=udp%3A%2F%2Ftracker.openbittorrent.com%3A80&amp;tr=udp%3A%2F%2Fopen.demonii.com%3A1337&amp;tr=udp%3A%2F%2Ftracker.coppersurfer.tk%3A6969&amp;tr=udp%3A%2F%2Fexodus.desync.com%3A6969","seeders":5,"leechers":0,"uploader":"canc232","files":1,"time":1398760781,"description":"The Blacklist S01E20 HDTV x264 AAC E-Subs [GWC]\n\n\nSTORYLINE :\nFormer government agent Raymond &quot;Red&quot; Reddington has eluded capture for decades. But he suddenly surrenders to the FBI with an offer to help catch a terrorist under the condition that he speaks only to Elizabeth &quot;Liz&quot; Keen, a young FBI profiler who's just barely out of Quantico\n\n\nSCREENS : &lt;a href=&quot;\nhttp://i.imgur.com/idMFZnS.jpg&quot; rel=&quot;nofollow&quot; target=&quot;_NEW&quot;&gt;\nhttp://i.imgur.com/idMFZnS.jpg&lt;/a&gt; &lt;a href=&quot;\nhttp://i.imgur.com/OQ8WiLr.jpg&quot; rel=&quot;nofollow&quot; target=&quot;_NEW&quot;&gt;\nhttp://i.imgur.com/OQ8WiLr.jpg&lt;/a&gt; &lt;a href=&quot;\nhttp://i.imgur.com/GFNEXhh.jpg&quot; rel=&quot;nofollow&quot; target=&quot;_NEW&quot;&gt;\nhttp://i.imgur.com/GFNEXhh.jpg&lt;/a&gt;\n\n\nMEDIA INFO :\nGeneral \nFormat : MPEG-4 \nFormat profile : Base Media \nFile size : 118 MiB \nDuration : 41mn 41s \nOverall bit rate mode : Variable \nOverall bit rate : 396 Kbps \n\nVideo \nFormat : AVC \nFormat profile : &lt;a class=&quot;__cf_email__&quot; href=&quot;/cdn-cgi/l/email-protection&quot; data-cfemail=&quot;90d8f9f7f8d0dca3bea0&quot;&gt;[email&amp;#160;protected]&lt;/a&gt;&lt;script cf-hash='f9e31' type=&quot;text/javascript&quot;&gt;\n/* &lt;![CDATA[ */!function(){try{var t=&quot;currentScript&quot;in document?document.currentScript:function(){for(var t=document.getElementsByTagName(&quot;script&quot;),e=t.length;e--;)if(t[e].getAttribute(&quot;cf-hash&quot;))return t[e]}();if(t&amp;&amp;t.previousSibling){var e,r,n,i,c=t.previousSibling,a=c.getAttribute(&quot;data-cfemail&quot;);if(a){for(e=&quot;&quot;,r=parseInt(a.substr(0,2),16),n=2;a.length-n;n+=2)i=parseInt(a.substr(n,2),16)^r,e+=String.fromCharCode(i);e=document.createTextNode(e),c.parentNode.replaceChild(e,c)}}}catch(u){}}();/* ]]&gt; */&lt;/script&gt; \nFormat settings, CABAC : Yes \nFormat settings, ReFrames : 4 frames \nDuration : 41mn 39s \nBit rate : 333 Kbps \nMaximum bit rate : 1 917 Kbps \nWidth : 720 pixels \nHeight : 404 pixels \nDisplay aspect ratio : 16:9 \nFrame rate mode : Constant \nFrame rate : 23.976 fps \nStream size : 99.3 MiB (84%) \nTitle : The Blacklist S01E20 HDTV x264 AAC E-Subs [GWC] \nWriting library : x264 core\n\nAudio \nFormat : AAC \nFormat profile : HE-AAC / LC \nDuration : 41mn 39s \nBit rate mode : Variable \nChannel(s) : 2 channels \nSampling rate : 48.0 KHz / 24.0 KHz \nStream size : 17.9 MiB (15%) \nLanguage : English \n\nText \nFormat : Timed Text \nTitle : English Subtitle by n17t01 \nLanguage : English \n","torrent":{"xt":"urn:btih:a321115fd1d765be00ecf415544ea8f427e54ef5","amp;dn":"The+Blacklist+S01E20+HDTV+x264+AAC+E-Subs+%5BGWC%5D.mp4","amp;tr":["udp%3A%2F%2Ftracker.openbittorrent.com%3A80","udp%3A%2F%2Fopen.demonii.com%3A1337","udp%3A%2F%2Ftracker.coppersurfer.tk%3A6969","udp%3A%2F%2Fexodus.desync.com%3A6969"],"infoHash":"a321115fd1d765be00ecf415544ea8f427e54ef5","infoHashBuffer":{"type":"Buffer","data":[163,33,17,95,209,215,101,190,0,236,244,21,84,78,168,244,39,229,78,245]},"announce":[],"urlList":[]}}